<svg width="480" height="207" viewBox="0 0 480 207" fill="none" xmlns="http://www.w3.org/2000/svg">
<path fill-rule="evenodd" clip-rule="evenodd" d="M-376 25.5845H-357.062C-338.125 25.5845 -300.25 25.5845 -262.375 51.1689C-224.5 76.7534 -186.625 127.922 -148.75 140.715C-110.875 153.507 -73 127.922 -35.125 102.338C2.75 76.7534 40.625 51.1689 78.5 38.3767C116.375 25.5845 154.25 25.5845 192.125 42.6408C230 59.6971 267.875 93.8097 305.75 127.922C343.625 162.035 381.5 196.148 419.375 204.676C457.25 213.204 495.125 196.148 514.062 187.619L533 179.091V0H514.062C495.125 0 457.25 0 419.375 0C381.5 0 343.625 0 305.75 0C267.875 0 230 0 192.125 0C154.25 0 116.375 0 78.5 0C40.625 0 2.75 0 -35.125 0C-73 0 -110.875 0 -148.75 0C-186.625 0 -224.5 0 -262.375 0C-300.25 0 -338.125 0 -357.062 0H-376V25.5845Z" fill="#89E3FF"/>
</svg>
